<mxfile host="app.diagrams.net" modified="2024-05-02T16:17:14.289Z" agent="Mozilla/5.0 (X11; Linux x86_64) AppleWebKit/537.36 (KHTML, like Gecko) Chrome/120.0.0.0 Safari/537.36 Edg/120.0.0.0" etag="AO3tsV9IBzKDFUG6tztV" version="24.3.1" type="github">
  <diagram name="Page-1" id="hnl1fhd0iWjQp8yomvfb">
    <mxGraphModel dx="823" dy="393" grid="1" gridSize="10" guides="1" tooltips="1" connect="1" arrows="1" fold="1" page="1" pageScale="1" pageWidth="850" pageHeight="1100" math="0" shadow="0">
      <root>
        <mxCell id="0" />
        <mxCell id="1" parent="0" />
        <mxCell id="6-wbJ766hXMYdCAOirdd-1" value="User" style="rounded=1;whiteSpace=wrap;html=1;movable=1;resizable=1;rotatable=1;deletable=1;editable=1;locked=0;connectable=1;" vertex="1" parent="1">
          <mxGeometry x="140" y="40" width="110" height="40" as="geometry" />
        </mxCell>
        <mxCell id="6-wbJ766hXMYdCAOirdd-5" value="Administrator" style="rounded=1;whiteSpace=wrap;html=1;movable=1;resizable=1;rotatable=1;deletable=1;editable=1;locked=0;connectable=1;" vertex="1" parent="1">
          <mxGeometry x="440" y="40" width="110" height="40" as="geometry" />
        </mxCell>
        <mxCell id="6-wbJ766hXMYdCAOirdd-9" value="Enter in login page" style="rounded=1;whiteSpace=wrap;html=1;movable=0;resizable=0;rotatable=0;deletable=0;editable=0;locked=1;connectable=0;" vertex="1" parent="1">
          <mxGeometry x="140" y="160" width="110" height="40" as="geometry" />
        </mxCell>
        <mxCell id="6-wbJ766hXMYdCAOirdd-10" value="Enter username and password" style="rounded=1;whiteSpace=wrap;html=1;movable=1;resizable=1;rotatable=1;deletable=1;editable=1;locked=0;connectable=1;" vertex="1" parent="1">
          <mxGeometry x="140" y="230" width="110" height="40" as="geometry" />
        </mxCell>
        <mxCell id="6-wbJ766hXMYdCAOirdd-12" value="Authorize" style="rounded=1;whiteSpace=wrap;html=1;movable=1;resizable=1;rotatable=1;deletable=1;editable=1;locked=0;connectable=1;" vertex="1" parent="1">
          <mxGeometry x="440" y="230" width="110" height="40" as="geometry" />
        </mxCell>
        <mxCell id="6-wbJ766hXMYdCAOirdd-13" value="" style="endArrow=classic;html=1;rounded=0;entryX=0;entryY=0.5;entryDx=0;entryDy=0;exitX=1;exitY=0.5;exitDx=0;exitDy=0;" edge="1" parent="1" source="6-wbJ766hXMYdCAOirdd-10" target="6-wbJ766hXMYdCAOirdd-12">
          <mxGeometry width="50" height="50" relative="1" as="geometry">
            <mxPoint x="280" y="320" as="sourcePoint" />
            <mxPoint x="330" y="270" as="targetPoint" />
          </mxGeometry>
        </mxCell>
        <mxCell id="6-wbJ766hXMYdCAOirdd-14" value="" style="endArrow=classic;html=1;rounded=0;entryX=0.5;entryY=0;entryDx=0;entryDy=0;" edge="1" parent="1" target="6-wbJ766hXMYdCAOirdd-10">
          <mxGeometry width="50" height="50" relative="1" as="geometry">
            <mxPoint x="195" y="200" as="sourcePoint" />
            <mxPoint x="204.58" y="170" as="targetPoint" />
          </mxGeometry>
        </mxCell>
        <mxCell id="6-wbJ766hXMYdCAOirdd-16" value="" style="rhombus;whiteSpace=wrap;html=1;" vertex="1" parent="1">
          <mxGeometry x="455" y="300" width="80" height="60" as="geometry" />
        </mxCell>
        <mxCell id="6-wbJ766hXMYdCAOirdd-17" value="" style="endArrow=classic;html=1;rounded=0;entryX=0.5;entryY=0;entryDx=0;entryDy=0;" edge="1" parent="1">
          <mxGeometry width="50" height="50" relative="1" as="geometry">
            <mxPoint x="494.58" y="270" as="sourcePoint" />
            <mxPoint x="494.58" y="300" as="targetPoint" />
          </mxGeometry>
        </mxCell>
        <mxCell id="6-wbJ766hXMYdCAOirdd-18" value="Show detail of weapon" style="rounded=1;whiteSpace=wrap;html=1;movable=1;resizable=1;rotatable=1;deletable=1;editable=1;locked=0;connectable=1;" vertex="1" parent="1">
          <mxGeometry x="140" y="310" width="110" height="40" as="geometry" />
        </mxCell>
        <mxCell id="6-wbJ766hXMYdCAOirdd-19" value="" style="endArrow=classic;html=1;rounded=0;entryX=1;entryY=0.5;entryDx=0;entryDy=0;exitX=0;exitY=0.5;exitDx=0;exitDy=0;" edge="1" parent="1" source="6-wbJ766hXMYdCAOirdd-16" target="6-wbJ766hXMYdCAOirdd-18">
          <mxGeometry width="50" height="50" relative="1" as="geometry">
            <mxPoint x="450" y="330" as="sourcePoint" />
            <mxPoint x="340" y="370" as="targetPoint" />
          </mxGeometry>
        </mxCell>
        <mxCell id="6-wbJ766hXMYdCAOirdd-20" value="Check weapon condition" style="rounded=1;whiteSpace=wrap;html=1;movable=1;resizable=1;rotatable=1;deletable=1;editable=1;locked=0;connectable=1;" vertex="1" parent="1">
          <mxGeometry x="140" y="380" width="110" height="40" as="geometry" />
        </mxCell>
        <mxCell id="6-wbJ766hXMYdCAOirdd-21" value="" style="endArrow=classic;html=1;rounded=0;entryX=0.5;entryY=0;entryDx=0;entryDy=0;" edge="1" parent="1">
          <mxGeometry width="50" height="50" relative="1" as="geometry">
            <mxPoint x="194.58" y="350" as="sourcePoint" />
            <mxPoint x="194.58" y="380" as="targetPoint" />
          </mxGeometry>
        </mxCell>
        <mxCell id="6-wbJ766hXMYdCAOirdd-22" value="" style="endArrow=classic;html=1;rounded=0;entryX=0.5;entryY=0;entryDx=0;entryDy=0;" edge="1" parent="1">
          <mxGeometry width="50" height="50" relative="1" as="geometry">
            <mxPoint x="194.58" y="420" as="sourcePoint" />
            <mxPoint x="194.58" y="450" as="targetPoint" />
          </mxGeometry>
        </mxCell>
        <mxCell id="6-wbJ766hXMYdCAOirdd-23" value="Add weapon for maintanance" style="rounded=1;whiteSpace=wrap;html=1;movable=1;resizable=1;rotatable=1;deletable=1;editable=1;locked=0;connectable=1;" vertex="1" parent="1">
          <mxGeometry x="140" y="450" width="110" height="40" as="geometry" />
        </mxCell>
        <mxCell id="6-wbJ766hXMYdCAOirdd-24" value="Valid user" style="text;strokeColor=none;align=center;fillColor=none;html=1;verticalAlign=middle;whiteSpace=wrap;rounded=0;" vertex="1" parent="1">
          <mxGeometry x="400" y="300" width="60" height="30" as="geometry" />
        </mxCell>
        <mxCell id="6-wbJ766hXMYdCAOirdd-25" value="Invalid&amp;nbsp;&lt;br&gt;user" style="text;strokeColor=none;align=center;fillColor=none;html=1;verticalAlign=middle;whiteSpace=wrap;rounded=0;" vertex="1" parent="1">
          <mxGeometry x="420" y="290" width="250" height="30" as="geometry" />
        </mxCell>
        <mxCell id="6-wbJ766hXMYdCAOirdd-27" value="Check weapon detail &amp;amp; condition" style="rounded=1;whiteSpace=wrap;html=1;movable=1;resizable=1;rotatable=1;deletable=1;editable=1;locked=0;connectable=1;" vertex="1" parent="1">
          <mxGeometry x="440" y="450" width="110" height="40" as="geometry" />
        </mxCell>
        <mxCell id="6-wbJ766hXMYdCAOirdd-28" value="" style="endArrow=classic;html=1;rounded=0;exitX=1;exitY=0.5;exitDx=0;exitDy=0;entryX=0;entryY=0.5;entryDx=0;entryDy=0;" edge="1" parent="1" source="6-wbJ766hXMYdCAOirdd-23" target="6-wbJ766hXMYdCAOirdd-27">
          <mxGeometry width="50" height="50" relative="1" as="geometry">
            <mxPoint x="420" y="460" as="sourcePoint" />
            <mxPoint x="470" y="410" as="targetPoint" />
          </mxGeometry>
        </mxCell>
        <mxCell id="6-wbJ766hXMYdCAOirdd-29" value="" style="rhombus;whiteSpace=wrap;html=1;" vertex="1" parent="1">
          <mxGeometry x="455" y="520" width="80" height="60" as="geometry" />
        </mxCell>
        <mxCell id="6-wbJ766hXMYdCAOirdd-30" value="" style="endArrow=classic;html=1;rounded=0;entryX=0.5;entryY=0;entryDx=0;entryDy=0;" edge="1" parent="1">
          <mxGeometry width="50" height="50" relative="1" as="geometry">
            <mxPoint x="494.58" y="490" as="sourcePoint" />
            <mxPoint x="494.58" y="520" as="targetPoint" />
          </mxGeometry>
        </mxCell>
        <mxCell id="6-wbJ766hXMYdCAOirdd-31" value="" style="endArrow=classic;html=1;rounded=0;entryX=0.5;entryY=0.25;entryDx=0;entryDy=0;entryPerimeter=0;" edge="1" parent="1" target="6-wbJ766hXMYdCAOirdd-34">
          <mxGeometry width="50" height="50" relative="1" as="geometry">
            <mxPoint x="455" y="550" as="sourcePoint" />
            <mxPoint x="200" y="620" as="targetPoint" />
            <Array as="points">
              <mxPoint x="200" y="550" />
            </Array>
          </mxGeometry>
        </mxCell>
        <mxCell id="6-wbJ766hXMYdCAOirdd-32" value="Weapons goes for maintanance" style="rounded=1;whiteSpace=wrap;html=1;movable=1;resizable=1;rotatable=1;deletable=1;editable=1;locked=0;connectable=1;" vertex="1" parent="1">
          <mxGeometry x="440" y="617.5" width="110" height="40" as="geometry" />
        </mxCell>
        <mxCell id="6-wbJ766hXMYdCAOirdd-37" style="edgeStyle=orthogonalEdgeStyle;rounded=0;orthogonalLoop=1;jettySize=auto;html=1;exitX=1;exitY=0.5;exitDx=0;exitDy=0;exitPerimeter=0;entryX=0;entryY=0.5;entryDx=0;entryDy=0;" edge="1" parent="1" source="6-wbJ766hXMYdCAOirdd-34" target="6-wbJ766hXMYdCAOirdd-32">
          <mxGeometry relative="1" as="geometry" />
        </mxCell>
        <mxCell id="6-wbJ766hXMYdCAOirdd-34" value="" style="shape=line;html=1;strokeWidth=6;strokeColor=#ff0000;" vertex="1" parent="1">
          <mxGeometry x="157.5" y="630" width="80" height="15" as="geometry" />
        </mxCell>
        <mxCell id="6-wbJ766hXMYdCAOirdd-35" value="" style="edgeStyle=orthogonalEdgeStyle;html=1;verticalAlign=bottom;endArrow=open;endSize=8;strokeColor=#ff0000;rounded=0;entryX=0.5;entryY=0;entryDx=0;entryDy=0;exitX=0.498;exitY=0.544;exitDx=0;exitDy=0;exitPerimeter=0;" edge="1" source="6-wbJ766hXMYdCAOirdd-34" parent="1" target="6-wbJ766hXMYdCAOirdd-38">
          <mxGeometry relative="1" as="geometry">
            <mxPoint x="200" y="680" as="targetPoint" />
          </mxGeometry>
        </mxCell>
        <mxCell id="6-wbJ766hXMYdCAOirdd-38" value="Show maintenance ID &amp;amp; return date of weapon" style="rounded=1;whiteSpace=wrap;html=1;movable=1;resizable=1;rotatable=1;deletable=1;editable=1;locked=0;connectable=1;" vertex="1" parent="1">
          <mxGeometry x="145" y="680" width="105" height="50" as="geometry" />
        </mxCell>
        <mxCell id="6-wbJ766hXMYdCAOirdd-39" value="" style="shape=line;html=1;strokeWidth=6;strokeColor=#ff0000;" vertex="1" parent="1">
          <mxGeometry x="300" y="730" width="80" height="10" as="geometry" />
        </mxCell>
        <mxCell id="6-wbJ766hXMYdCAOirdd-40" value="" style="edgeStyle=orthogonalEdgeStyle;html=1;verticalAlign=bottom;endArrow=open;endSize=8;strokeColor=#ff0000;rounded=0;" edge="1" source="6-wbJ766hXMYdCAOirdd-39" parent="1">
          <mxGeometry relative="1" as="geometry">
            <mxPoint x="340" y="780" as="targetPoint" />
            <Array as="points" />
          </mxGeometry>
        </mxCell>
        <mxCell id="6-wbJ766hXMYdCAOirdd-41" value="" style="endArrow=classic;html=1;rounded=0;entryX=0.25;entryY=0.5;entryDx=0;entryDy=0;entryPerimeter=0;" edge="1" parent="1" target="6-wbJ766hXMYdCAOirdd-39">
          <mxGeometry width="50" height="50" relative="1" as="geometry">
            <mxPoint x="250" y="700" as="sourcePoint" />
            <mxPoint x="350" y="690" as="targetPoint" />
            <Array as="points">
              <mxPoint x="320" y="700" />
            </Array>
          </mxGeometry>
        </mxCell>
        <mxCell id="6-wbJ766hXMYdCAOirdd-42" value="" style="endArrow=classic;html=1;rounded=0;entryX=0.75;entryY=0.5;entryDx=0;entryDy=0;entryPerimeter=0;exitX=0;exitY=0.75;exitDx=0;exitDy=0;" edge="1" parent="1" source="6-wbJ766hXMYdCAOirdd-32" target="6-wbJ766hXMYdCAOirdd-39">
          <mxGeometry width="50" height="50" relative="1" as="geometry">
            <mxPoint x="440" y="645" as="sourcePoint" />
            <mxPoint x="490" y="595" as="targetPoint" />
            <Array as="points">
              <mxPoint x="360" y="650" />
            </Array>
          </mxGeometry>
        </mxCell>
        <mxCell id="6-wbJ766hXMYdCAOirdd-43" value="" style="endArrow=classic;html=1;rounded=0;entryX=1;entryY=0.5;entryDx=0;entryDy=0;" edge="1" parent="1" target="6-wbJ766hXMYdCAOirdd-44">
          <mxGeometry width="50" height="50" relative="1" as="geometry">
            <mxPoint x="535" y="550" as="sourcePoint" />
            <mxPoint x="560" y="810" as="targetPoint" />
            <Array as="points">
              <mxPoint x="560" y="550" />
              <mxPoint x="560" y="810" />
            </Array>
          </mxGeometry>
        </mxCell>
        <mxCell id="6-wbJ766hXMYdCAOirdd-44" value="" style="rhombus;whiteSpace=wrap;html=1;" vertex="1" parent="1">
          <mxGeometry x="300" y="780" width="80" height="60" as="geometry" />
        </mxCell>
        <mxCell id="6-wbJ766hXMYdCAOirdd-45" value="Show updated detail" style="rounded=1;whiteSpace=wrap;html=1;movable=1;resizable=1;rotatable=1;deletable=1;editable=1;locked=0;connectable=1;" vertex="1" parent="1">
          <mxGeometry x="285" y="870" width="110" height="40" as="geometry" />
        </mxCell>
        <mxCell id="6-wbJ766hXMYdCAOirdd-46" value="" style="endArrow=classic;html=1;rounded=0;entryX=1;entryY=0.5;entryDx=0;entryDy=0;" edge="1" parent="1" target="6-wbJ766hXMYdCAOirdd-48">
          <mxGeometry width="50" height="50" relative="1" as="geometry">
            <mxPoint x="535" y="330" as="sourcePoint" />
            <mxPoint x="520" y="810" as="targetPoint" />
            <Array as="points">
              <mxPoint x="580" y="330" />
              <mxPoint x="580" y="970" />
            </Array>
          </mxGeometry>
        </mxCell>
        <mxCell id="6-wbJ766hXMYdCAOirdd-47" value="" style="endArrow=classic;html=1;rounded=0;entryX=0.5;entryY=0;entryDx=0;entryDy=0;" edge="1" parent="1">
          <mxGeometry width="50" height="50" relative="1" as="geometry">
            <mxPoint x="339.16999999999996" y="840" as="sourcePoint" />
            <mxPoint x="339.16999999999996" y="870" as="targetPoint" />
          </mxGeometry>
        </mxCell>
        <mxCell id="6-wbJ766hXMYdCAOirdd-48" value="" style="rhombus;whiteSpace=wrap;html=1;" vertex="1" parent="1">
          <mxGeometry x="300" y="940" width="80" height="60" as="geometry" />
        </mxCell>
        <mxCell id="6-wbJ766hXMYdCAOirdd-49" value="" style="endArrow=classic;html=1;rounded=0;entryX=0.5;entryY=0;entryDx=0;entryDy=0;" edge="1" parent="1">
          <mxGeometry width="50" height="50" relative="1" as="geometry">
            <mxPoint x="339.16999999999996" y="910" as="sourcePoint" />
            <mxPoint x="339.16999999999996" y="940" as="targetPoint" />
          </mxGeometry>
        </mxCell>
        <mxCell id="6-wbJ766hXMYdCAOirdd-50" value="Show homepage" style="rounded=1;whiteSpace=wrap;html=1;movable=1;resizable=1;rotatable=1;deletable=1;editable=1;locked=0;connectable=1;" vertex="1" parent="1">
          <mxGeometry x="280" y="1030" width="110" height="40" as="geometry" />
        </mxCell>
        <mxCell id="6-wbJ766hXMYdCAOirdd-51" value="" style="endArrow=classic;html=1;rounded=0;" edge="1" parent="1">
          <mxGeometry width="50" height="50" relative="1" as="geometry">
            <mxPoint x="280" y="1049.17" as="sourcePoint" />
            <mxPoint x="230" y="1049.17" as="targetPoint" />
            <Array as="points" />
          </mxGeometry>
        </mxCell>
        <mxCell id="6-wbJ766hXMYdCAOirdd-52" value="" style="endArrow=classic;html=1;rounded=0;entryX=0.5;entryY=0;entryDx=0;entryDy=0;" edge="1" parent="1">
          <mxGeometry width="50" height="50" relative="1" as="geometry">
            <mxPoint x="339.16999999999996" y="1000" as="sourcePoint" />
            <mxPoint x="339.16999999999996" y="1030" as="targetPoint" />
          </mxGeometry>
        </mxCell>
        <mxCell id="6-wbJ766hXMYdCAOirdd-53" value="" style="ellipse;html=1;shape=startState;fillColor=#000000;strokeColor=#ff0000;" vertex="1" parent="1">
          <mxGeometry x="180" y="90" width="30" height="30" as="geometry" />
        </mxCell>
        <mxCell id="6-wbJ766hXMYdCAOirdd-54" value="" style="edgeStyle=orthogonalEdgeStyle;html=1;verticalAlign=bottom;endArrow=open;endSize=8;strokeColor=#ff0000;rounded=0;" edge="1" source="6-wbJ766hXMYdCAOirdd-53" parent="1">
          <mxGeometry relative="1" as="geometry">
            <mxPoint x="195" y="160" as="targetPoint" />
          </mxGeometry>
        </mxCell>
        <mxCell id="6-wbJ766hXMYdCAOirdd-56" value="START" style="text;strokeColor=none;align=center;fillColor=none;html=1;verticalAlign=middle;whiteSpace=wrap;rounded=0;" vertex="1" parent="1">
          <mxGeometry x="200" y="90" width="60" height="30" as="geometry" />
        </mxCell>
        <mxCell id="6-wbJ766hXMYdCAOirdd-57" value="JOIN" style="text;strokeColor=none;align=center;fillColor=none;html=1;verticalAlign=middle;whiteSpace=wrap;rounded=0;" vertex="1" parent="1">
          <mxGeometry x="310" y="710" width="60" height="30" as="geometry" />
        </mxCell>
        <mxCell id="6-wbJ766hXMYdCAOirdd-59" value="FORK" style="text;strokeColor=none;align=center;fillColor=none;html=1;verticalAlign=middle;whiteSpace=wrap;rounded=0;" vertex="1" parent="1">
          <mxGeometry x="190" y="615" width="60" height="30" as="geometry" />
        </mxCell>
        <mxCell id="6-wbJ766hXMYdCAOirdd-60" value="Logout" style="rounded=1;whiteSpace=wrap;html=1;movable=1;resizable=1;rotatable=1;deletable=1;editable=1;locked=0;connectable=1;" vertex="1" parent="1">
          <mxGeometry x="120" y="1030" width="110" height="40" as="geometry" />
        </mxCell>
        <mxCell id="6-wbJ766hXMYdCAOirdd-61" value="" style="ellipse;html=1;shape=endState;fillColor=#000000;strokeColor=#ff0000;" vertex="1" parent="1">
          <mxGeometry x="150" y="1100" width="37.5" height="30" as="geometry" />
        </mxCell>
        <mxCell id="6-wbJ766hXMYdCAOirdd-65" value="" style="endArrow=classic;html=1;rounded=0;entryX=0.5;entryY=0;entryDx=0;entryDy=0;" edge="1" parent="1">
          <mxGeometry width="50" height="50" relative="1" as="geometry">
            <mxPoint x="169.99999999999997" y="1070" as="sourcePoint" />
            <mxPoint x="169.99999999999997" y="1100" as="targetPoint" />
          </mxGeometry>
        </mxCell>
        <mxCell id="6-wbJ766hXMYdCAOirdd-69" value="Valid detail" style="text;strokeColor=none;align=center;fillColor=none;html=1;verticalAlign=middle;whiteSpace=wrap;rounded=0;" vertex="1" parent="1">
          <mxGeometry x="400" y="520" width="60" height="30" as="geometry" />
        </mxCell>
        <mxCell id="6-wbJ766hXMYdCAOirdd-70" value="Invalid&amp;nbsp;&lt;br&gt;detail" style="text;strokeColor=none;align=center;fillColor=none;html=1;verticalAlign=middle;whiteSpace=wrap;rounded=0;" vertex="1" parent="1">
          <mxGeometry x="510" y="510" width="60" height="30" as="geometry" />
        </mxCell>
      </root>
    </mxGraphModel>
  </diagram>
</mxfile>
